<?xml version="1.0" encoding="utf-8"?>
<!-- Generator: Adobe Illustrator 17.1.0, SVG Export Plug-In . SVG Version: 6.00 Build 0)  -->
<!DOCTYPE svg PUBLIC "-//W3C//DTD SVG 1.1//EN" "http://www.w3.org/Graphics/SVG/1.1/DTD/svg11.dtd">
<svg version="1.1" xmlns="http://www.w3.org/2000/svg" xmlns:xlink="http://www.w3.org/1999/xlink" x="0px" y="0px"
	 viewBox="0 0 331.788 563.667" enable-background="new 0 0 331.788 563.667" xml:space="preserve">
<g id="Ebene_1">
</g>
<g id="Ebene_2">
	<path opacity="0.2" fill="#F7CD88" d="M326.409,0c0,0-5.297,16.478-19.421,28.837c0,0-60.349,23.41-122.998,52.377
		c-54.731,25.306-100.899,57.71-125.352,88.276c0,0-70.621,82.98-47.669,260.709c0,0,3.811,18.586,13.536,34.133L0,563.667
		l32.278-0.058c0,0,2.767-9.739,6.271-23.762c4.957-19.833,12.267-48.128,20.886-68.468c0,0,99.838-4.692,168.694-134.164
		c0,0,23.54-30.014,32.368-118.879c0,0,3.531-59.439,36.488-112.993l25.388-42.483C322.372,62.86,340.534,41.784,326.409,0z
		 M241.076,137.122c-17.067,43.844-20.009,98.281-20.009,98.281c-15.301,74.74-31.779,97.692-31.779,97.692
		c-49.435,87.688-132.414,98.869-132.414,98.869c-14.124-32.956-12.947-51.2-12.947-51.2c-1.177-25.306,4.708-61.205,4.708-61.205
		c11.77-87.099,32.956-116.525,32.956-116.525c21.441-33.199,83.423-68.992,129.472-94.75
		c32.315-18.076,57.674-32.074,57.674-32.074C257.554,89.453,241.076,137.122,241.076,137.122z"/>
</g>
</svg>
